<?xml version="1.0" encoding="utf-8"?>
<svg xmlns="http://www.w3.org/2000/svg" style="margin: auto; background: rgb(241, 242, 243); display: block; shape-rendering: auto;" width="280" height="62" preserveAspectRatio="xMidYMid">
<style type="text/css">
  text {
    text-anchor: middle; font-size: 59px; opacity: 0;
  }
</style>
<g style="transform-origin:140px 31px;transform:scale(1)">
<g transform="translate(140,31)">
  <g transform="translate(0,0)"><g class="path" style="transform: matrix(1, 0, 0, 1, 0, 14.925); opacity: 0.05; transform-origin: -87.9633px 1.10957px 0px; animation: 1s linear 0s 1 normal forwards running float-btt-in-f043cae1-5851-41df-a173-79b9e505ca58;"><path d="M23.25 0L22.07 0L20.11-2.94L20.11-2.94Q18.90-1.35 17.08-0.39L17.08-0.39L17.08-0.39Q15.27 0.58 13.11 0.58L13.11 0.58L12.21 0.58L12.21 0.58Q10.43 0.58 8.84-0.10L8.84-0.10L8.84-0.10Q7.26-0.78 6.08-1.96L6.08-1.96L6.08-1.96Q4.90-3.14 4.22-4.72L4.22-4.72L4.22-4.72Q3.54-6.31 3.54-8.10L3.54-8.10L3.54-8.38L3.54-8.38Q3.54-10.17 4.22-11.75L4.22-11.75L4.22-11.75Q4.90-13.34 6.08-14.52L6.08-14.52L6.08-14.52Q7.26-15.70 8.84-16.38L8.84-16.38L8.84-16.38Q10.43-17.05 12.21-17.05L12.21-17.05L19.71-17.05L19.71-21.61L19.71-21.61Q19.71-22.67 19.30-23.61L19.30-23.61L19.30-23.61Q18.90-24.54 18.21-25.24L18.21-25.24L18.21-25.24Q17.52-25.93 16.58-26.33L16.58-26.33L16.58-26.33Q15.64-26.73 14.58-26.73L14.58-26.73L12.50-26.73L12.50-26.73Q11.44-26.73 10.50-26.33L10.50-26.33L10.50-26.33Q9.56-25.93 8.87-25.24L8.87-25.24L8.87-25.24Q8.18-24.54 7.78-23.61L7.78-23.61L7.78-23.61Q7.38-22.67 7.38-21.61L7.38-21.61L7.38-20.54L3.83-21.12L3.83-21.40L3.83-21.40Q3.83-23.19 4.51-24.78L4.51-24.78L4.51-24.78Q5.19-26.36 6.37-27.54L6.37-27.54L6.37-27.54Q7.55-28.72 9.13-29.40L9.13-29.40L9.13-29.40Q10.72-30.08 12.50-30.08L12.50-30.08L14.58-30.08L14.58-30.08Q16.36-30.08 17.95-29.40L17.95-29.40L17.95-29.40Q19.53-28.72 20.71-27.54L20.71-27.54L20.71-27.54Q21.89-26.36 22.57-24.78L22.57-24.78L22.57-24.78Q23.25-23.19 23.25-21.40L23.25-21.40L23.25 0zM19.71-7.89L19.71-14.29L12.21-14.29L12.21-14.29Q11.15-14.29 10.21-13.89L10.21-13.89L10.21-13.89Q9.28-13.48 8.58-12.78L8.58-12.78L8.58-12.78Q7.89-12.07 7.49-11.13L7.49-11.13L7.49-11.13Q7.09-10.20 7.09-9.13L7.09-9.13L7.09-7.89L7.09-7.89Q7.09-6.83 7.49-5.89L7.49-5.89L7.49-5.89Q7.89-4.96 8.58-4.26L8.58-4.26L8.58-4.26Q9.28-3.57 10.21-3.17L10.21-3.17L10.21-3.17Q11.15-2.77 12.21-2.77L12.21-2.77L14.58-2.77L14.58-2.77Q15.64-2.77 16.58-3.17L16.58-3.17L16.58-3.17Q17.52-3.57 18.21-4.26L18.21-4.26L18.21-4.26Q18.90-4.96 19.30-5.89L19.30-5.89L19.30-5.89Q19.71-6.83 19.71-7.89L19.71-7.89" fill="#c9d1d9" stroke="none" stroke-width="none" transform="translate(-101.35833740234375,15.8595694405692)" style="fill: rgb(201, 209, 217);"></path></g><g class="path" style="transform: matrix(1, 0, 0, 1, 0, 14.925); opacity: 0.05; transform-origin: -61.1683px -4.50543px 0px; animation: 1s linear 0.0942857s 1 normal forwards running float-btt-in-f043cae1-5851-41df-a173-79b9e505ca58;"><path d="M50.04-8.10L50.04-8.10L50.04-8.10Q50.04-6.31 49.36-4.72L49.36-4.72L49.36-4.72Q48.69-3.14 47.51-1.96L47.51-1.96L47.51-1.96Q46.32-0.78 44.74-0.10L44.74-0.10L44.74-0.10Q43.16 0.58 41.37 0.58L41.37 0.58L39.01 0.58L39.01 0.58Q37.22 0.58 35.64-0.10L35.64-0.10L35.64-0.10Q34.05-0.78 32.87-1.96L32.87-1.96L32.87-1.96Q31.69-3.14 31.01-4.72L31.01-4.72L31.01-4.72Q30.34-6.31 30.34-8.10L30.34-8.10L30.34-41.31L33.88-41.31L33.88-27.02L33.88-27.02Q35.09-28.46 36.79-29.27L36.79-29.27L36.79-29.27Q38.49-30.08 40.48-30.08L40.48-30.08L41.37-30.08L41.37-30.08Q43.16-30.08 44.74-29.40L44.74-29.40L44.74-29.40Q46.32-28.72 47.51-27.54L47.51-27.54L47.51-27.54Q48.69-26.36 49.36-24.78L49.36-24.78L49.36-24.78Q50.04-23.19 50.04-21.40L50.04-21.40L50.04-8.10zM46.50-7.89L46.50-21.61L46.50-21.61Q46.50-22.67 46.09-23.61L46.09-23.61L46.09-23.61Q45.69-24.54 45.00-25.24L45.00-25.24L45.00-25.24Q44.31-25.93 43.37-26.33L43.37-26.33L43.37-26.33Q42.44-26.73 41.37-26.73L41.37-26.73L39.01-26.73L39.01-26.73Q37.94-26.73 37.00-26.33L37.00-26.33L37.00-26.33Q36.07-25.93 35.38-25.24L35.38-25.24L35.38-25.24Q34.69-24.54 34.28-23.61L34.28-23.61L34.28-23.61Q33.88-22.67 33.88-21.61L33.88-21.61L33.88-7.89L33.88-7.89Q33.88-6.83 34.28-5.89L34.28-5.89L34.28-5.89Q34.69-4.96 35.38-4.26L35.38-4.26L35.38-4.26Q36.07-3.57 37.00-3.17L37.00-3.17L37.00-3.17Q37.94-2.77 39.01-2.77L39.01-2.77L41.37-2.77L41.37-2.77Q42.44-2.77 43.37-3.17L43.37-3.17L43.37-3.17Q44.31-3.57 45.00-4.26L45.00-4.26L45.00-4.26Q45.69-4.96 46.09-5.89L46.09-5.89L46.09-5.89Q46.50-6.83 46.50-7.89L46.50-7.89" fill="#c9d1d9" stroke="none" stroke-width="none" transform="translate(-101.35833740234375,15.8595694405692)" style="fill: rgb(201, 209, 217);"></path></g><g class="path" style="transform: matrix(1, 0, 0, 1, 0, 14.925); opacity: 0.05; transform-origin: -34.3783px 1.10957px 0px; animation: 1s linear 0.188571s 1 normal forwards running float-btt-in-f043cae1-5851-41df-a173-79b9e505ca58;"><path d="M76.83-8.10L76.83-8.10L76.83-8.10Q76.83-6.31 76.16-4.72L76.16-4.72L76.16-4.72Q75.48-3.14 74.30-1.96L74.30-1.96L74.30-1.96Q73.12-0.78 71.53-0.10L71.53-0.10L71.53-0.10Q69.95 0.58 68.16 0.58L68.16 0.58L65.80 0.58L65.80 0.58Q64.01 0.58 62.43-0.10L62.43-0.10L62.43-0.10Q60.84-0.78 59.66-1.96L59.66-1.96L59.66-1.96Q58.48-3.14 57.80-4.72L57.80-4.72L57.80-4.72Q57.13-6.31 57.13-8.10L57.13-8.10L57.13-21.40L57.13-21.40Q57.13-23.19 57.80-24.78L57.80-24.78L57.80-24.78Q58.48-26.36 59.66-27.54L59.66-27.54L59.66-27.54Q60.84-28.72 62.43-29.40L62.43-29.40L62.43-29.40Q64.01-30.08 65.80-30.08L65.80-30.08L68.16-30.08L68.16-30.08Q69.95-30.08 71.53-29.40L71.53-29.40L71.53-29.40Q73.12-28.72 74.30-27.54L74.30-27.54L74.30-27.54Q75.48-26.36 76.16-24.78L76.16-24.78L76.16-24.78Q76.83-23.19 76.83-21.40L76.83-21.40L76.83-8.10zM73.29-7.89L73.29-21.61L73.29-21.61Q73.29-22.67 72.89-23.61L72.89-23.61L72.89-23.61Q72.48-24.54 71.79-25.24L71.79-25.24L71.79-25.24Q71.10-25.93 70.16-26.33L70.16-26.33L70.16-26.33Q69.23-26.73 68.16-26.73L68.16-26.73L65.80-26.73L65.80-26.73Q64.73-26.73 63.80-26.33L63.80-26.33L63.80-26.33Q62.86-25.93 62.17-25.24L62.17-25.24L62.17-25.24Q61.48-24.54 61.07-23.61L61.07-23.61L61.07-23.61Q60.67-22.67 60.67-21.61L60.67-21.61L60.67-7.89L60.67-7.89Q60.67-6.83 61.07-5.89L61.07-5.89L61.07-5.89Q61.48-4.96 62.17-4.26L62.17-4.26L62.17-4.26Q62.86-3.57 63.80-3.17L63.80-3.17L63.80-3.17Q64.73-2.77 65.80-2.77L65.80-2.77L68.16-2.77L68.16-2.77Q69.23-2.77 70.16-3.17L70.16-3.17L70.16-3.17Q71.10-3.57 71.79-4.26L71.79-4.26L71.79-4.26Q72.48-4.96 72.89-5.89L72.89-5.89L72.89-5.89Q73.29-6.83 73.29-7.89L73.29-7.89" fill="#c9d1d9" stroke="none" stroke-width="none" transform="translate(-101.35833740234375,15.8595694405692)" style="fill: rgb(201, 209, 217);"></path></g><g class="path" style="transform: matrix(1, 0, 0, 1, 0, 14.925); opacity: 0.05; transform-origin: -7.58834px 1.39957px 0px; animation: 1s linear 0.282857s 1 normal forwards running float-btt-in-f043cae1-5851-41df-a173-79b9e505ca58;"><path d="M103.62 0L102.44 0L100.48-3.00L100.48-3.00Q99.27-1.35 97.46-0.39L97.46-0.39L97.46-0.39Q95.64 0.58 93.48 0.58L93.48 0.58L92.59 0.58L92.59 0.58Q90.80 0.58 89.22-0.10L89.22-0.10L89.22-0.10Q87.64-0.78 86.45-1.96L86.45-1.96L86.45-1.96Q85.27-3.14 84.60-4.72L84.60-4.72L84.60-4.72Q83.92-6.31 83.92-8.10L83.92-8.10L83.92-29.50L87.46-29.50L87.46-7.89L87.46-7.89Q87.46-6.83 87.87-5.89L87.87-5.89L87.87-5.89Q88.27-4.96 88.96-4.26L88.96-4.26L88.96-4.26Q89.65-3.57 90.59-3.17L90.59-3.17L90.59-3.17Q91.52-2.77 92.59-2.77L92.59-2.77L94.95-2.77L94.95-2.77Q96.02-2.77 96.96-3.17L96.96-3.17L96.96-3.17Q97.89-3.57 98.58-4.26L98.58-4.26L98.58-4.26Q99.27-4.96 99.68-5.89L99.68-5.89L99.68-5.89Q100.08-6.83 100.08-7.89L100.08-7.89L100.08-29.50L103.62-29.50L103.62 0" fill="#c9d1d9" stroke="none" stroke-width="none" transform="translate(-101.35833740234375,15.8595694405692)" style="fill: rgb(201, 209, 217);"></path></g><g class="path" style="transform: matrix(1, 0, 0, 1, 0, 14.925); opacity: 0.05; transform-origin: 15.1567px -2.72043px 0px; animation: 1s linear 0.377143s 1 normal forwards running float-btt-in-f043cae1-5851-41df-a173-79b9e505ca58;"><path d="M124.68 0L121.46 0L121.46 0Q119.84 0 118.42-0.60L118.42-0.60L118.42-0.60Q116.99-1.21 115.94-2.28L115.94-2.28L115.94-2.28Q114.89-3.34 114.27-4.75L114.27-4.75L114.27-4.75Q113.65-6.17 113.65-7.78L113.65-7.78L113.65-26.13L108.35-26.13L108.35-29.50L113.65-29.50L113.65-36.59L117.19-37.16L117.19-29.50L124.68-29.50L124.68-26.13L117.19-26.13L117.19-7.61L117.19-7.61Q117.19-6.71 117.52-5.95L117.52-5.95L117.52-5.95Q117.86-5.19 118.43-4.61L118.43-4.61L118.43-4.61Q119.01-4.03 119.79-3.70L119.79-3.70L119.79-3.70Q120.56-3.37 121.46-3.37L121.46-3.37L124.68-3.37L124.68 0" fill="#c9d1d9" stroke="none" stroke-width="none" transform="translate(-101.35833740234375,15.8595694405692)" style="fill: rgb(201, 209, 217);"></path></g><g class="path" style="transform: matrix(1, 0, 0, 1, 0, 14.925); opacity: 0.05; transform-origin: 60.7467px 0.81957px 0px; animation: 1s linear 0.471429s 1 normal forwards running float-btt-in-f043cae1-5851-41df-a173-79b9e505ca58;"><path d="M179.45 0L175.91 0L175.91-21.61L175.91-21.61Q175.91-22.67 175.50-23.61L175.50-23.61L175.50-23.61Q175.10-24.54 174.41-25.24L174.41-25.24L174.41-25.24Q173.72-25.93 172.78-26.33L172.78-26.33L172.78-26.33Q171.84-26.73 170.78-26.73L170.78-26.73L169.02-26.73L169.02-26.73Q167.95-26.73 167.02-26.33L167.02-26.33L167.02-26.33Q166.08-25.93 165.38-25.24L165.38-25.24L165.38-25.24Q164.67-24.54 164.27-23.61L164.27-23.61L164.27-23.61Q163.86-22.67 163.86-21.61L163.86-21.61L163.86 0L160.35 0L160.35-21.61L160.35-21.61Q160.35-22.67 159.95-23.61L159.95-23.61L159.95-23.61Q159.54-24.54 158.84-25.24L158.84-25.24L158.84-25.24Q158.13-25.93 157.19-26.33L157.19-26.33L157.19-26.33Q156.26-26.73 155.19-26.73L155.19-26.73L153.43-26.73L153.43-26.73Q152.37-26.73 151.43-26.33L151.43-26.33L151.43-26.33Q150.50-25.93 149.80-25.24L149.80-25.24L149.80-25.24Q149.11-24.54 148.71-23.61L148.71-23.61L148.71-23.61Q148.31-22.67 148.31-21.61L148.31-21.61L148.31 0L144.76 0L144.76-29.50L145.94-29.50L147.87-26.50L147.87-26.50Q149.08-28.15 150.91-29.11L150.91-29.11L150.91-29.11Q152.74-30.08 154.90-30.08L154.90-30.08L155.19-30.08L155.19-30.08Q157.70-30.08 159.71-28.84L159.71-28.84L159.71-28.84Q161.73-27.60 162.83-25.55L162.83-25.55L162.83-25.55Q163.37-26.56 164.18-27.40L164.18-27.40L164.18-27.40Q164.99-28.23 165.97-28.82L165.97-28.82L165.97-28.82Q166.95-29.41 168.10-29.74L168.10-29.74L168.10-29.74Q169.25-30.08 170.49-30.08L170.49-30.08L170.78-30.08L170.78-30.08Q172.56-30.08 174.15-29.40L174.15-29.40L174.15-29.40Q175.73-28.72 176.91-27.54L176.91-27.54L176.91-27.54Q178.09-26.36 178.77-24.78L178.77-24.78L178.77-24.78Q179.45-23.19 179.45-21.40L179.45-21.40L179.45 0" fill="#c9d1d9" stroke="none" stroke-width="none" transform="translate(-101.35833740234375,15.8595694405692)" style="fill: rgb(201, 209, 217);"></path></g><g class="path" style="transform: matrix(1, 0, 0, 1, 0, 14.925); opacity: 0.05; transform-origin: 95.0317px 1.10957px 0px; animation: 1s linear 0.565714s 1 normal forwards running float-btt-in-f043cae1-5851-41df-a173-79b9e505ca58;"><path d="M206.24-8.10L206.24-8.10L206.24-8.10Q206.24-6.31 205.56-4.72L205.56-4.72L205.56-4.72Q204.89-3.14 203.71-1.96L203.71-1.96L203.71-1.96Q202.52-0.78 200.94-0.10L200.94-0.10L200.94-0.10Q199.36 0.58 197.57 0.58L197.57 0.58L195.21 0.58L195.21 0.58Q193.42 0.58 191.84-0.10L191.84-0.10L191.84-0.10Q190.25-0.78 189.07-1.96L189.07-1.96L189.07-1.96Q187.89-3.14 187.21-4.72L187.21-4.72L187.21-4.72Q186.54-6.31 186.54-8.10L186.54-8.10L186.54-21.40L186.54-21.40Q186.54-23.19 187.21-24.78L187.21-24.78L187.21-24.78Q187.89-26.36 189.07-27.54L189.07-27.54L189.07-27.54Q190.25-28.72 191.84-29.40L191.84-29.40L191.84-29.40Q193.42-30.08 195.21-30.08L195.21-30.08L197.57-30.08L197.57-30.08Q199.36-30.08 200.94-29.40L200.94-29.40L200.94-29.40Q202.52-28.72 203.71-27.54L203.71-27.54L203.71-27.54Q204.89-26.36 205.56-24.78L205.56-24.78L205.56-24.78Q206.24-23.19 206.24-21.40L206.24-21.40L206.24-14.46L190.08-14.46L190.08-7.89L190.08-7.89Q190.08-6.83 190.48-5.89L190.48-5.89L190.48-5.89Q190.89-4.96 191.58-4.26L191.58-4.26L191.58-4.26Q192.27-3.57 193.20-3.17L193.20-3.17L193.20-3.17Q194.14-2.77 195.21-2.77L195.21-2.77L197.57-2.77L197.57-2.77Q198.64-2.77 199.57-3.17L199.57-3.17L199.57-3.17Q200.51-3.57 201.20-4.26L201.20-4.26L201.20-4.26Q201.89-4.96 202.29-5.89L202.29-5.89L202.29-5.89Q202.70-6.83 202.70-7.89L202.70-7.89L202.70-9.85L206.24-9.28L206.24-8.10zM202.70-17.23L202.70-21.61L202.70-21.61Q202.70-22.67 202.29-23.61L202.29-23.61L202.29-23.61Q201.89-24.54 201.20-25.24L201.20-25.24L201.20-25.24Q200.51-25.93 199.57-26.33L199.57-26.33L199.57-26.33Q198.64-26.73 197.57-26.73L197.57-26.73L195.21-26.73L195.21-26.73Q194.14-26.73 193.20-26.33L193.20-26.33L193.20-26.33Q192.27-25.93 191.58-25.24L191.58-25.24L191.58-25.24Q190.89-24.54 190.48-23.61L190.48-23.61L190.48-23.61Q190.08-22.67 190.08-21.61L190.08-21.61L190.08-17.23L202.70-17.23" fill="#c9d1d9" stroke="none" stroke-width="none" transform="translate(-101.35833740234375,15.8595694405692)" style="fill: rgb(201, 209, 217);"></path></g></g>
</g>
</g>
<style id="float-btt-in-f043cae1-5851-41df-a173-79b9e505ca58" data-anikit="">@keyframes float-btt-in-f043cae1-5851-41df-a173-79b9e505ca58
{
  0% {
    animation-timing-function: cubic-bezier(0.2242,0.7499,0.3142,0.8148);
    transform: translate(0px,14.925px) rotate(0deg) scale(1,1) skewX(0deg) skewY(0deg);
    opacity: 0.05;
  }
  100% {
    transform: translate(0px,0px) rotate(0deg) scale(1,1) skewX(0deg) skewY(0deg);
    opacity: 1;
  }
}</style></svg>